<mxfile host="app.diagrams.net" modified="2022-05-01T10:37:04.425Z" agent="5.0 (X11; Linux x86_64) AppleWebKit/537.36 (KHTML, like Gecko) Chrome/101.0.4951.41 Safari/537.36" etag="6HkV2kdnpzsKFlcHQlxs" version="17.4.2" type="github">
  <diagram id="bBziwx1Fr6af-mxDDZQc" name="Page-1">
    <mxGraphModel dx="931" dy="616" grid="1" gridSize="10" guides="1" tooltips="1" connect="1" arrows="1" fold="1" page="1" pageScale="1" pageWidth="827" pageHeight="1169" math="0" shadow="0">
      <root>
        <mxCell id="0" />
        <mxCell id="1" parent="0" />
        <mxCell id="-TIl2a86GJjxUKtXQ1UN-1" value="" style="rounded=0;whiteSpace=wrap;html=1;" vertex="1" parent="1">
          <mxGeometry x="160" y="200" width="20" height="280" as="geometry" />
        </mxCell>
        <mxCell id="-TIl2a86GJjxUKtXQ1UN-2" value="" style="rounded=0;whiteSpace=wrap;html=1;" vertex="1" parent="1">
          <mxGeometry x="840" y="200" width="20" height="280" as="geometry" />
        </mxCell>
        <mxCell id="-TIl2a86GJjxUKtXQ1UN-3" value="" style="rounded=0;whiteSpace=wrap;html=1;" vertex="1" parent="1">
          <mxGeometry x="620" y="200" width="20" height="280" as="geometry" />
        </mxCell>
        <mxCell id="-TIl2a86GJjxUKtXQ1UN-4" value="" style="rounded=0;whiteSpace=wrap;html=1;" vertex="1" parent="1">
          <mxGeometry x="404" y="200" width="20" height="280" as="geometry" />
        </mxCell>
        <mxCell id="-TIl2a86GJjxUKtXQ1UN-5" value="" style="rounded=0;whiteSpace=wrap;html=1;" vertex="1" parent="1">
          <mxGeometry x="20" y="230" width="90" height="160" as="geometry" />
        </mxCell>
      </root>
    </mxGraphModel>
  </diagram>
</mxfile>
